<svg width="58" height="12" viewBox="0 0 58 12" fill="none" xmlns="http://www.w3.org/2000/svg">
<path fill-rule="evenodd" clip-rule="evenodd" d="M5.77736 8.99133L4.04611 9.94248C3.81226 10.071 3.52302 9.977 3.40008 9.73262C3.35112 9.63531 3.33423 9.52385 3.35201 9.41549L3.68265 7.40094C3.70927 7.23877 3.65782 7.0733 3.54508 6.95846L2.14446 5.53175C1.95527 5.33903 1.9514 5.02253 2.13582 4.82483C2.20925 4.7461 2.30547 4.69487 2.40958 4.67906L4.34518 4.38514C4.50099 4.36148 4.63569 4.25922 4.70537 4.11167L5.57099 2.27878C5.68792 2.0312 5.97476 1.92955 6.21168 2.05173C6.30602 2.10039 6.38238 2.18019 6.42894 2.27878L7.29457 4.11167C7.36425 4.25922 7.49894 4.36148 7.65476 4.38514L9.59035 4.67906C9.85181 4.71876 10.033 4.97243 9.99497 5.24566C9.97984 5.35445 9.93081 5.45501 9.85547 5.53175L8.45486 6.95846C8.34212 7.0733 8.29067 7.23877 8.31728 7.40094L8.64792 9.41549C8.69258 9.6876 8.5177 9.94603 8.2573 9.9927C8.15361 10.0113 8.04695 9.99364 7.95383 9.94248L6.22258 8.99133C6.08321 8.91477 5.91672 8.91477 5.77736 8.99133Z" fill="black"/>
<path fill-rule="evenodd" clip-rule="evenodd" d="M17.7774 8.99133L16.0461 9.94248C15.8123 10.071 15.523 9.977 15.4001 9.73262C15.3511 9.63531 15.3342 9.52385 15.352 9.41549L15.6827 7.40094C15.7093 7.23877 15.6578 7.0733 15.5451 6.95846L14.1445 5.53175C13.9553 5.33903 13.9514 5.02253 14.1358 4.82483C14.2093 4.7461 14.3055 4.69487 14.4096 4.67906L16.3452 4.38514C16.501 4.36148 16.6357 4.25922 16.7054 4.11167L17.571 2.27878C17.6879 2.0312 17.9748 1.92955 18.2117 2.05173C18.306 2.10039 18.3824 2.18019 18.4289 2.27878L19.2946 4.11167C19.3643 4.25922 19.4989 4.36148 19.6548 4.38514L21.5904 4.67906C21.8518 4.71876 22.033 4.97243 21.995 5.24566C21.9798 5.35445 21.9308 5.45501 21.8555 5.53175L20.4549 6.95846C20.3421 7.0733 20.2907 7.23877 20.3173 7.40094L20.6479 9.41549C20.6926 9.6876 20.5177 9.94603 20.2573 9.9927C20.1536 10.0113 20.0469 9.99364 19.9538 9.94248L18.2226 8.99133C18.0832 8.91477 17.9167 8.91477 17.7774 8.99133Z" fill="black"/>
<path fill-rule="evenodd" clip-rule="evenodd" d="M29.7774 8.99133L28.0461 9.94248C27.8123 10.071 27.523 9.977 27.4001 9.73262C27.3511 9.63531 27.3342 9.52385 27.352 9.41549L27.6827 7.40094C27.7093 7.23877 27.6578 7.0733 27.5451 6.95846L26.1445 5.53175C25.9553 5.33903 25.9514 5.02253 26.1358 4.82483C26.2093 4.7461 26.3055 4.69487 26.4096 4.67906L28.3452 4.38514C28.501 4.36148 28.6357 4.25922 28.7054 4.11167L29.571 2.27878C29.6879 2.0312 29.9748 1.92955 30.2117 2.05173C30.306 2.10039 30.3824 2.18019 30.4289 2.27878L31.2946 4.11167C31.3643 4.25922 31.4989 4.36148 31.6548 4.38514L33.5904 4.67906C33.8518 4.71876 34.033 4.97243 33.995 5.24566C33.9798 5.35445 33.9308 5.45501 33.8555 5.53175L32.4549 6.95846C32.3421 7.0733 32.2907 7.23877 32.3173 7.40094L32.6479 9.41549C32.6926 9.6876 32.5177 9.94603 32.2573 9.9927C32.1536 10.0113 32.0469 9.99364 31.9538 9.94248L30.2226 8.99133C30.0832 8.91477 29.9167 8.91477 29.7774 8.99133Z" fill="black"/>
<path fill-rule="evenodd" clip-rule="evenodd" d="M53.7774 8.99133L52.0461 9.94248C51.8123 10.071 51.523 9.977 51.4001 9.73262C51.3511 9.63531 51.3342 9.52385 51.352 9.41549L51.6827 7.40094C51.7093 7.23877 51.6578 7.0733 51.5451 6.95846L50.1445 5.53175C49.9553 5.33903 49.9514 5.02253 50.1358 4.82483C50.2093 4.7461 50.3055 4.69487 50.4096 4.67906L52.3452 4.38514C52.501 4.36148 52.6357 4.25922 52.7054 4.11167L53.571 2.27878C53.6879 2.0312 53.9748 1.92955 54.2117 2.05173C54.306 2.10039 54.3824 2.18019 54.4289 2.27878L55.2946 4.11167C55.3643 4.25922 55.4989 4.36148 55.6548 4.38514L57.5904 4.67906C57.8518 4.71876 58.033 4.97243 57.995 5.24566C57.9798 5.35445 57.9308 5.45501 57.8555 5.53175L56.4549 6.95846C56.3421 7.0733 56.2907 7.23877 56.3173 7.40094L56.6479 9.41549C56.6926 9.6876 56.5177 9.94603 56.2573 9.9927C56.1536 10.0113 56.0469 9.99364 55.9538 9.94248L54.2226 8.99133C54.0832 8.91477 53.9167 8.91477 53.7774 8.99133ZM53.3921 8.29018C53.7714 8.08182 54.2285 8.08182 54.6078 8.29018L55.756 8.92104L55.5278 7.5305C55.4601 7.11818 55.5914 6.69601 55.884 6.39801L56.8826 5.38076L55.5346 5.17607C55.1127 5.112 54.7534 4.83925 54.5712 4.4533L53.9999 3.2438L53.4287 4.4533C53.2465 4.83925 52.8872 5.112 52.4653 5.17607L51.1173 5.38076L52.1159 6.39801C52.4085 6.69601 52.5397 7.11818 52.4721 7.5305L52.2438 8.92104L53.3921 8.29018Z" fill="black"/>
<path fill-rule="evenodd" clip-rule="evenodd" d="M41.7774 8.99133L40.0461 9.94248C39.8123 10.071 39.523 9.977 39.4001 9.73262C39.3511 9.63531 39.3342 9.52385 39.352 9.41549L39.6827 7.40094C39.7093 7.23877 39.6578 7.0733 39.5451 6.95846L38.1445 5.53175C37.9553 5.33903 37.9514 5.02253 38.1358 4.82483C38.2093 4.7461 38.3055 4.69487 38.4096 4.67906L40.3452 4.38514C40.501 4.36148 40.6357 4.25922 40.7054 4.11167L41.571 2.27878C41.6879 2.0312 41.9748 1.92955 42.2117 2.05173C42.306 2.10039 42.3824 2.18019 42.4289 2.27878L43.2946 4.11167C43.3643 4.25922 43.4989 4.36148 43.6548 4.38514L45.5904 4.67906C45.8518 4.71876 46.033 4.97243 45.995 5.24566C45.9798 5.35445 45.9308 5.45501 45.8555 5.53175L44.4549 6.95846C44.3421 7.0733 44.2907 7.23877 44.3173 7.40094L44.6479 9.41549C44.6926 9.6876 44.5177 9.94603 44.2573 9.9927C44.1536 10.0113 44.0469 9.99364 43.9538 9.94248L42.2226 8.99133C42.0832 8.91477 41.9167 8.91477 41.7774 8.99133Z" fill="black"/>
</svg>
